<svg xmlns="http://www.w3.org/2000/svg" width="132.384" height="129.888" viewBox="0 0 132.384 129.888">
  <g id="over_4_branc" data-name="over 4 branc" transform="translate(0)">
    <g id="Group_151" data-name="Group 151" transform="translate(16.873 52.236)">
      <g id="Group_150" data-name="Group 150">
        <path id="Path_143" data-name="Path 143" d="M81.01,201.836A15.574,15.574,0,1,0,96.585,217.41,15.592,15.592,0,0,0,81.01,201.836Zm0,23.362A7.788,7.788,0,1,1,88.8,217.41,7.8,7.8,0,0,1,81.01,225.2Z" transform="translate(-65.436 -201.836)" fill="#1bafd7"/>
      </g>
    </g>
    <g id="Group_153" data-name="Group 153" transform="translate(69.052 56.212)">
      <g id="Group_152" data-name="Group 152">
        <rect id="Rectangle_122" data-name="Rectangle 122" width="15.572" height="7.787" fill="#1bafd7"/>
      </g>
    </g>
    <g id="Group_155" data-name="Group 155" transform="translate(92.411 56.212)">
      <g id="Group_154" data-name="Group 154">
        <rect id="Rectangle_123" data-name="Rectangle 123" width="15.572" height="7.787" fill="#1bafd7"/>
      </g>
    </g>
    <g id="Group_157" data-name="Group 157" transform="translate(69.052 71.787)">
      <g id="Group_156" data-name="Group 156">
        <rect id="Rectangle_124" data-name="Rectangle 124" width="15.572" height="7.787" fill="#1bafd7"/>
      </g>
    </g>
    <g id="Group_159" data-name="Group 159" transform="translate(92.411 71.787)">
      <g id="Group_158" data-name="Group 158">
        <rect id="Rectangle_125" data-name="Rectangle 125" width="15.572" height="7.787" fill="#1bafd7"/>
      </g>
    </g>
    <g id="Group_161" data-name="Group 161" transform="translate(69.052 25.422)">
      <g id="Group_160" data-name="Group 160">
        <rect id="Rectangle_126" data-name="Rectangle 126" width="15.572" height="7.787" fill="#1bafd7"/>
      </g>
    </g>
    <g id="Group_163" data-name="Group 163" transform="translate(92.411 25.422)">
      <g id="Group_162" data-name="Group 162">
        <rect id="Rectangle_127" data-name="Rectangle 127" width="15.572" height="7.787" fill="#1bafd7"/>
      </g>
    </g>
    <g id="Group_165" data-name="Group 165" transform="translate(69.052 40.994)">
      <g id="Group_164" data-name="Group 164">
        <rect id="Rectangle_128" data-name="Rectangle 128" width="15.572" height="7.787" fill="#1bafd7"/>
      </g>
    </g>
    <g id="Group_167" data-name="Group 167" transform="translate(92.411 40.994)">
      <g id="Group_166" data-name="Group 166">
        <rect id="Rectangle_129" data-name="Rectangle 129" width="15.572" height="7.787" fill="#1bafd7"/>
      </g>
    </g>
    <g id="Group_169" data-name="Group 169">
      <g id="Group_168" data-name="Group 168">
        <path id="Path_144" data-name="Path 144" d="M117.049,7.8V0H59.943V7.84H44.109v29.6A32.447,32.447,0,0,0,.238,67.81c0,7.329,4.838,19.345,14.791,36.734C22.16,117,29.393,127.665,29.466,127.771c0,0,1.61,2.116,3.22,2.116s3.219-2.116,3.219-2.116c.058-.086,4.759-7.015,10.31-16.214h86.406V7.853h0ZM32.685,111.557c-12.331,0-24.661-33.214-24.661-43.747a24.661,24.661,0,0,1,49.322,0C57.347,78.343,45.016,111.557,32.685,111.557Zm92.15-7.787H92.65V87.676H84.864V103.77H50.782C60.436,86.8,65.134,75.029,65.134,67.81A32.422,32.422,0,0,0,51.9,41.677V15.627H67.73V7.787h41.533v7.774l15.573.053Z" transform="translate(-0.238)" fill="#1bafd7"/>
      </g>
    </g>
  </g>
</svg>
