<svg xmlns="http://www.w3.org/2000/svg" width="146" height="146" viewBox="0 0 146 146">
  <g id="Contact-Connection" transform="translate(-18 -18)">
    <path id="Path_1291" data-name="Path 1291" d="M95.6,26.659a3.04,3.04,0,0,0-4.3,0l-7.955,7.955-4.657.912L69.8,26.643a3.04,3.04,0,0,0-2.149-.875H56.02l-7.709-7.706a3.04,3.04,0,0,0-4.3,0L13.919,48.156a3.04,3.04,0,0,0,0,4.3l8.6,8.6,13.29,13.29a9.049,9.049,0,0,0,7.739,12.983,8.973,8.973,0,0,0,8.609,8.59,8.976,8.976,0,0,0,8.584,8.584,9.1,9.1,0,0,0,15.5,5.97l3.231,3.231a9.086,9.086,0,0,0,15.542-5.967,8.967,8.967,0,0,0,8.59-8.593,8.989,8.989,0,0,0,8.6-8.6,9.08,9.08,0,0,0,5.973-15.5l-3.216-3.216,2.152-2.149a.1.1,0,0,1,.033-.055l8.554-8.554a3.04,3.04,0,0,0,0-4.3ZM90.226,55.676a3.04,3.04,0,0,1,0,4.3,3.107,3.107,0,0,1-4.3,0L73.03,47.08a3.04,3.04,0,0,0-4.3,0,9.119,9.119,0,0,1-12.9,0l-4.286,4.3a15.1,15.1,0,0,0,3.745,2.69L39.724,69.647,28.966,58.9,56.02,31.847H66.4ZM46.15,24.51l4.313,4.3L24.665,54.6l-4.3-4.3Zm23.634,82.541a3.015,3.015,0,0,1-2.17-5.125l.043-.036L73.9,95.643l2.344-2.338h0l-4.292-4.31-2.35,2.35-6.271,6.247-.027.033a3.04,3.04,0,0,1-4.256-4.332l8.606-8.6-4.3-4.3-8.6,8.6a3.04,3.04,0,0,1-4.3-4.3l8.6-8.6-4.3-4.3-8.6,8.6a3.107,3.107,0,0,1-4.3,0,3.04,3.04,0,0,1,0-4.3l6.447-6.45h0L62.184,55.767a15.08,15.08,0,0,0,8.49-2.456L81.639,64.272a9.341,9.341,0,0,0,12.9,0,9.119,9.119,0,0,0,0-12.895l-10.67-10.67h0l26.8,26.8-.912.912a9.016,9.016,0,0,0-11.414,8.3,8.982,8.982,0,0,0-8.6,8.678,8.815,8.815,0,0,0-8.59,8.511,9.013,9.013,0,0,0-8.308,11.387l-.912.912a3.006,3.006,0,0,1-2.146.848Zm18.293,2.362a3.107,3.107,0,0,1-4.3,0l-4.3-4.307a3.04,3.04,0,0,1,4.289-4.292l4.31,4.292a3,3,0,0,1,.891,2.146,3.04,3.04,0,0,1-.891,2.161Zm8.6-8.6a3.04,3.04,0,0,1-4.3,0l-4.3-4.3a3.04,3.04,0,0,1,0-4.3,3,3,0,0,1,2.146-.891,3.039,3.039,0,0,1,2.149.89l4.3,4.3a3.04,3.04,0,0,1,0,4.3Zm8.593-8.6a3.107,3.107,0,0,1-4.3,0l-4.3-4.3a3.04,3.04,0,1,1,4.3-4.3l4.3,4.3a3.04,3.04,0,0,1,.891,2.149,3,3,0,0,1-.894,2.149Zm8.6-8.6a3.04,3.04,0,0,1-4.3,0l-4.3-4.3a3.044,3.044,0,0,1,4.3-4.307l4.289,4.307a3.04,3.04,0,0,1,0,4.3ZM114.945,63.2,89.153,37.4l4.3-4.3,25.8,25.8Z" transform="translate(20.698 29.148)" fill="#1bafd7"/>
    <rect id="Rectangle_534" data-name="Rectangle 534" width="6" height="7" transform="translate(88 18)" fill="#1bafd7"/>
    <rect id="Rectangle_535" data-name="Rectangle 535" width="6.079" height="6.079" transform="translate(37.656 41.955) rotate(-45)" fill="#1bafd7"/>
    <rect id="Rectangle_536" data-name="Rectangle 536" width="7" height="6" transform="translate(18 88)" fill="#1bafd7"/>
    <rect id="Rectangle_537" data-name="Rectangle 537" width="6.079" height="6.079" transform="translate(37.656 140.831) rotate(-45)" fill="#1bafd7"/>
    <rect id="Rectangle_538" data-name="Rectangle 538" width="6" height="6" transform="translate(88 158)" fill="#1bafd7"/>
    <rect id="Rectangle_539" data-name="Rectangle 539" width="6.079" height="6.079" transform="translate(136.536 140.832) rotate(-45)" fill="#1bafd7"/>
    <rect id="Rectangle_540" data-name="Rectangle 540" width="6" height="6" transform="translate(158 88)" fill="#1bafd7"/>
    <rect id="Rectangle_541" data-name="Rectangle 541" width="6.079" height="6.079" transform="translate(136.533 41.955) rotate(-45)" fill="#1bafd7"/>
  </g>
</svg>
