<svg xmlns="http://www.w3.org/2000/svg" width="145" height="145" viewBox="0 0 145 145">
  <g id="enterprise" transform="translate(0 1)">
    <g id="Group_93" data-name="Group 93" transform="translate(51 47.72)">
      <g id="Group_92" data-name="Group 92">
        <rect id="Rectangle_95" data-name="Rectangle 95" width="5" height="5" transform="translate(0 -0.137)" fill="#1bafd7"/>
      </g>
    </g>
    <g id="Group_95" data-name="Group 95" transform="translate(51 57.72)">
      <g id="Group_94" data-name="Group 94">
        <rect id="Rectangle_96" data-name="Rectangle 96" width="5" height="5" transform="translate(0 -0.137)" fill="#1bafd7"/>
      </g>
    </g>
    <g id="Group_97" data-name="Group 97" transform="translate(51 67.72)">
      <g id="Group_96" data-name="Group 96">
        <rect id="Rectangle_97" data-name="Rectangle 97" width="5" height="4" transform="translate(0 -0.137)" fill="#1bafd7"/>
      </g>
    </g>
    <g id="Group_99" data-name="Group 99" transform="translate(51 76.72)">
      <g id="Group_98" data-name="Group 98">
        <rect id="Rectangle_98" data-name="Rectangle 98" width="5" height="5" transform="translate(0 -0.137)" fill="#1bafd7"/>
      </g>
    </g>
    <g id="Group_101" data-name="Group 101" transform="translate(60 47.72)">
      <g id="Group_100" data-name="Group 100">
        <rect id="Rectangle_99" data-name="Rectangle 99" width="5" height="5" transform="translate(0 -0.137)" fill="#1bafd7"/>
      </g>
    </g>
    <g id="Group_103" data-name="Group 103" transform="translate(60 57.72)">
      <g id="Group_102" data-name="Group 102">
        <rect id="Rectangle_100" data-name="Rectangle 100" width="5" height="5" transform="translate(0 -0.137)" fill="#1bafd7"/>
      </g>
    </g>
    <g id="Group_105" data-name="Group 105" transform="translate(60 67.72)">
      <g id="Group_104" data-name="Group 104">
        <rect id="Rectangle_101" data-name="Rectangle 101" width="5" height="4" transform="translate(0 -0.137)" fill="#1bafd7"/>
      </g>
    </g>
    <g id="Group_107" data-name="Group 107" transform="translate(60 76.72)">
      <g id="Group_106" data-name="Group 106">
        <rect id="Rectangle_102" data-name="Rectangle 102" width="5" height="5" transform="translate(0 -0.137)" fill="#1bafd7"/>
      </g>
    </g>
    <g id="Group_109" data-name="Group 109" transform="translate(70 47.72)">
      <g id="Group_108" data-name="Group 108">
        <rect id="Rectangle_103" data-name="Rectangle 103" width="5" height="5" transform="translate(0 -0.137)" fill="#1bafd7"/>
      </g>
    </g>
    <g id="Group_111" data-name="Group 111" transform="translate(70 57.72)">
      <g id="Group_110" data-name="Group 110">
        <rect id="Rectangle_104" data-name="Rectangle 104" width="5" height="5" transform="translate(0 -0.137)" fill="#1bafd7"/>
      </g>
    </g>
    <g id="Group_113" data-name="Group 113" transform="translate(70 67.72)">
      <g id="Group_112" data-name="Group 112">
        <rect id="Rectangle_105" data-name="Rectangle 105" width="5" height="4" transform="translate(0 -0.137)" fill="#1bafd7"/>
      </g>
    </g>
    <g id="Group_115" data-name="Group 115" transform="translate(70 76.72)">
      <g id="Group_114" data-name="Group 114">
        <rect id="Rectangle_106" data-name="Rectangle 106" width="5" height="5" transform="translate(0 -0.137)" fill="#1bafd7"/>
      </g>
    </g>
    <g id="Group_117" data-name="Group 117" transform="translate(80 47.72)">
      <g id="Group_116" data-name="Group 116">
        <rect id="Rectangle_107" data-name="Rectangle 107" width="5" height="5" transform="translate(0 -0.137)" fill="#1bafd7"/>
      </g>
    </g>
    <g id="Group_119" data-name="Group 119" transform="translate(60 38.72)">
      <g id="Group_118" data-name="Group 118">
        <rect id="Rectangle_108" data-name="Rectangle 108" width="5" height="4" transform="translate(0 -0.137)" fill="#1bafd7"/>
      </g>
    </g>
    <g id="Group_121" data-name="Group 121" transform="translate(70 38.72)">
      <g id="Group_120" data-name="Group 120">
        <rect id="Rectangle_109" data-name="Rectangle 109" width="5" height="4" transform="translate(0 -0.137)" fill="#1bafd7"/>
      </g>
    </g>
    <g id="Group_123" data-name="Group 123" transform="translate(80 38.72)">
      <g id="Group_122" data-name="Group 122">
        <rect id="Rectangle_110" data-name="Rectangle 110" width="5" height="4" transform="translate(0 -0.137)" fill="#1bafd7"/>
      </g>
    </g>
    <g id="Group_125" data-name="Group 125" transform="translate(80 57.72)">
      <g id="Group_124" data-name="Group 124">
        <rect id="Rectangle_111" data-name="Rectangle 111" width="5" height="5" transform="translate(0 -0.137)" fill="#1bafd7"/>
      </g>
    </g>
    <g id="Group_127" data-name="Group 127" transform="translate(80 67.72)">
      <g id="Group_126" data-name="Group 126">
        <rect id="Rectangle_112" data-name="Rectangle 112" width="5" height="4" transform="translate(0 -0.137)" fill="#1bafd7"/>
      </g>
    </g>
    <g id="Group_129" data-name="Group 129" transform="translate(80 76.72)">
      <g id="Group_128" data-name="Group 128">
        <rect id="Rectangle_113" data-name="Rectangle 113" width="5" height="5" transform="translate(0 -0.137)" fill="#1bafd7"/>
      </g>
    </g>
    <g id="Group_131" data-name="Group 131" transform="translate(89 47.72)">
      <g id="Group_130" data-name="Group 130">
        <rect id="Rectangle_114" data-name="Rectangle 114" width="5" height="5" transform="translate(0 -0.137)" fill="#1bafd7"/>
      </g>
    </g>
    <g id="Group_133" data-name="Group 133" transform="translate(89 57.72)">
      <g id="Group_132" data-name="Group 132">
        <rect id="Rectangle_115" data-name="Rectangle 115" width="5" height="5" transform="translate(0 -0.137)" fill="#1bafd7"/>
      </g>
    </g>
    <g id="Group_135" data-name="Group 135" transform="translate(89 67.72)">
      <g id="Group_134" data-name="Group 134">
        <rect id="Rectangle_116" data-name="Rectangle 116" width="5" height="4" transform="translate(0 -0.137)" fill="#1bafd7"/>
      </g>
    </g>
    <g id="Group_137" data-name="Group 137" transform="translate(89 76.72)">
      <g id="Group_136" data-name="Group 136">
        <rect id="Rectangle_117" data-name="Rectangle 117" width="5" height="5" transform="translate(0 -0.137)" fill="#1bafd7"/>
      </g>
    </g>
    <g id="Group_139" data-name="Group 139" transform="translate(0 0)">
      <g id="Group_138" data-name="Group 138">
        <path id="Path_141" data-name="Path 141" d="M142.586,36.25H106.333V2.417A2.415,2.415,0,0,0,103.919,0H41.083a2.415,2.415,0,0,0-2.417,2.414V36.25H2.417A2.415,2.415,0,0,0,0,38.664v87a2.415,2.415,0,0,0,2.414,2.417H7.468A14.5,14.5,0,0,0,7.25,130.5v12.083A2.415,2.415,0,0,0,9.664,145H135.333a2.415,2.415,0,0,0,2.417-2.414V130.5a14.437,14.437,0,0,0-.218-2.417h5.052A2.415,2.415,0,0,0,145,125.669v-87A2.415,2.415,0,0,0,142.586,36.25Zm-38.669,67.667a4.833,4.833,0,1,1-4.833-4.833A4.833,4.833,0,0,1,103.917,103.917Zm-58-4.833a4.833,4.833,0,1,1-4.833,4.833A4.833,4.833,0,0,1,45.917,99.083Zm-14.5,41.083H12.083V130.5a9.667,9.667,0,0,1,19.333,0Zm-14.5-29A4.833,4.833,0,1,1,21.75,116,4.833,4.833,0,0,1,16.917,111.167Zm14.866,8.889a14.568,14.568,0,0,0-3.04-2.25,9.667,9.667,0,1,0-13.985,0,14.594,14.594,0,0,0-5.546,5.445H4.833V41.083H38.667V97.59a9.535,9.535,0,0,0,.257,12.965A14.541,14.541,0,0,0,31.783,120.055Zm23.8,20.111H36.25V123.25a9.667,9.667,0,1,1,19.333,0Zm29,0H60.417V123.25a12.083,12.083,0,1,1,24.167,0ZM65.25,99.083a7.25,7.25,0,1,1,7.25,7.25A7.25,7.25,0,0,1,65.25,99.083Zm21.968,15.858a17.022,17.022,0,0,0-6.934-6.694,12.084,12.084,0,1,0-15.569,0,17.022,17.022,0,0,0-6.934,6.694,14.6,14.6,0,0,0-4.873-4.386A9.6,9.6,0,0,0,43.5,94.593V4.833h58v89.76a9.624,9.624,0,0,0-9.409,15.962A14.6,14.6,0,0,0,87.218,114.941ZM108.75,130.5v9.667H89.417V123.25a9.667,9.667,0,1,1,19.333,0Zm24.167,9.667H113.583V130.5a9.667,9.667,0,0,1,19.333,0Zm-14.5-29A4.833,4.833,0,1,1,123.25,116,4.833,4.833,0,0,1,118.417,111.167Zm21.75,12.083h-4.378a14.594,14.594,0,0,0-5.546-5.445,9.667,9.667,0,1,0-13.985,0,14.56,14.56,0,0,0-3.04,2.25,14.54,14.54,0,0,0-7.141-9.5,9.535,9.535,0,0,0,.258-12.965V41.083h33.833V123.25Z" transform="translate(0 -1)" fill="#1bafd7"/>
      </g>
    </g>
    <g id="Group_141" data-name="Group 141" transform="translate(114 55.72)">
      <g id="Group_140" data-name="Group 140">
        <rect id="Rectangle_118" data-name="Rectangle 118" width="4" height="38" transform="translate(0 -0.137)" fill="#1bafd7"/>
      </g>
    </g>
    <g id="Group_143" data-name="Group 143" transform="translate(128 55.72)">
      <g id="Group_142" data-name="Group 142">
        <rect id="Rectangle_119" data-name="Rectangle 119" width="5" height="38" transform="translate(0 -0.137)" fill="#1bafd7"/>
      </g>
    </g>
    <g id="Group_145" data-name="Group 145" transform="translate(12 55.72)">
      <g id="Group_144" data-name="Group 144">
        <rect id="Rectangle_120" data-name="Rectangle 120" width="5" height="38" transform="translate(0 -0.137)" fill="#1bafd7"/>
      </g>
    </g>
    <g id="Group_147" data-name="Group 147" transform="translate(27 55.72)">
      <g id="Group_146" data-name="Group 146">
        <rect id="Rectangle_121" data-name="Rectangle 121" width="4" height="38" transform="translate(0 -0.137)" fill="#1bafd7"/>
      </g>
    </g>
    <g id="Group_149" data-name="Group 149" transform="translate(55.583 9.667)">
      <g id="Group_148" data-name="Group 148">
        <path id="Path_142" data-name="Path 142" d="M215.419,32h-29A2.415,2.415,0,0,0,184,34.414V53.75a2.415,2.415,0,0,0,2.414,2.417h29a2.415,2.415,0,0,0,2.417-2.414V34.417A2.415,2.415,0,0,0,215.419,32ZM213,51.333H188.833v-14.5H213Z" transform="translate(-184 -32)" fill="#1bafd7"/>
      </g>
    </g>
  </g>
</svg>
