<svg xmlns="http://www.w3.org/2000/svg" width="129.497" height="144.224" viewBox="0 0 129.497 144.224">
  <g id="Group_1159" data-name="Group 1159" transform="translate(-1447.23 -3581.913)">
    <g id="Group_1152" data-name="Group 1152" transform="translate(1447.23 3672.631)">
      <g id="grandparents" transform="translate(0)">
        <path id="Subtraction_2" data-name="Subtraction 2" d="M33.4,53.506H1.486A1.487,1.487,0,0,1,0,52.02V42.69a9.643,9.643,0,0,1,9.632-9.632h2.812v-1.87A14.561,14.561,0,0,1,2.874,17.5v-.043c0-.054.012-.922.066-4.745,0-.135,0-.214,0-.22A11.64,11.64,0,0,1,6.289,4.04C8.9,1.435,12.869,0,17.457,0h.058c8.655.03,14.47,5.109,14.47,12.637v.106c.009,1.67.023,4.508.023,4.761a14.487,14.487,0,0,1-2.693,8.43,14.642,14.642,0,0,1-6.877,5.254v1.87h2.812a9.643,9.643,0,0,1,9.632,9.632v9.33A1.485,1.485,0,0,1,33.4,53.506ZM24.047,36.029V50.535H31.91V42.69a6.668,6.668,0,0,0-6.66-6.66Zm-10.241,0V50.535h7.27V36.029Zm-4.174,0a6.668,6.668,0,0,0-6.66,6.66v7.845h7.863V36.029Zm5.783-4.1v1.128h4.051V31.931a14.694,14.694,0,0,1-4.051,0ZM5.921,15.5h0c.034,1.788.127,3.348.128,3.364l.011.014A11.252,11.252,0,0,0,17.441,29.1a11.654,11.654,0,0,0,10.871-7.56,8.687,8.687,0,0,0,.622-2.492c.038-.282.065-.57.082-.856a24.7,24.7,0,0,0-.009-3.406L29,14.727h0l.013,0V12.638c0-7.1-6.2-9.647-11.509-9.666h-.066c-3.785,0-7,1.127-9.053,3.173A8.618,8.618,0,0,0,5.914,12.5v1.04c-.007.474-.007,1,0,1.557v.414l.006,0Z" transform="translate(0)" fill="#1bafd7"/>
      </g>
      <g id="grandparents-2" data-name="grandparents" transform="translate(1.931)">
        <path id="Subtraction_2-2" data-name="Subtraction 2" d="M33.4,53.506H1.486A1.487,1.487,0,0,1,0,52.02V42.69a9.643,9.643,0,0,1,9.632-9.632h2.812v-1.87A14.561,14.561,0,0,1,2.874,17.5v-.043c0-.054.012-.922.066-4.745,0-.135,0-.214,0-.22A11.64,11.64,0,0,1,6.289,4.04C8.9,1.435,12.869,0,17.457,0h.058c8.655.03,14.47,5.109,14.47,12.637v.106c.009,1.67.023,4.508.023,4.761a14.487,14.487,0,0,1-2.693,8.43,14.642,14.642,0,0,1-6.877,5.254v1.87h2.812a9.643,9.643,0,0,1,9.632,9.632v9.33A1.485,1.485,0,0,1,33.4,53.506ZM24.047,36.029V50.535H31.91V42.69a6.668,6.668,0,0,0-6.66-6.66Zm-10.241,0V50.535h7.27V36.029Zm-4.174,0a6.668,6.668,0,0,0-6.66,6.66v7.845h7.863V36.029Zm5.783-4.1v1.128h4.051V31.931a14.694,14.694,0,0,1-4.051,0ZM5.921,15.5h0c.034,1.788.127,3.348.128,3.364l.011.014A11.252,11.252,0,0,0,17.441,29.1a11.654,11.654,0,0,0,10.871-7.56,8.687,8.687,0,0,0,.622-2.492c.038-.282.065-.57.082-.856a24.7,24.7,0,0,0-.009-3.406L29,14.727h0l.013,0V12.638c0-7.1-6.2-9.647-11.509-9.666h-.066c-3.785,0-7,1.127-9.053,3.173A8.618,8.618,0,0,0,5.914,12.5v1.04c-.007.474-.007,1,0,1.557v.414l.006,0Z" transform="translate(0)" fill="#1bafd7"/>
      </g>
    </g>
    <g id="Group_1157" data-name="Group 1157" transform="translate(1492.607 3672.631)">
      <g id="grandparents-3" data-name="grandparents" transform="translate(0)">
        <path id="Subtraction_2-3" data-name="Subtraction 2" d="M33.4,53.506H1.486A1.487,1.487,0,0,1,0,52.02V42.69a9.643,9.643,0,0,1,9.632-9.632h2.812v-1.87A14.561,14.561,0,0,1,2.874,17.5v-.043c0-.054.012-.922.066-4.745,0-.135,0-.214,0-.22A11.64,11.64,0,0,1,6.289,4.04C8.9,1.435,12.869,0,17.457,0h.058c8.655.03,14.47,5.109,14.47,12.637v.106c.009,1.67.023,4.508.023,4.761a14.487,14.487,0,0,1-2.693,8.43,14.642,14.642,0,0,1-6.877,5.254v1.87h2.812a9.643,9.643,0,0,1,9.632,9.632v9.33A1.485,1.485,0,0,1,33.4,53.506ZM24.047,36.029V50.535H31.91V42.69a6.668,6.668,0,0,0-6.66-6.66Zm-10.241,0V50.535h7.27V36.029Zm-4.174,0a6.668,6.668,0,0,0-6.66,6.66v7.845h7.863V36.029Zm5.783-4.1v1.128h4.051V31.931a14.694,14.694,0,0,1-4.051,0ZM5.921,15.5h0c.034,1.788.127,3.348.128,3.364l.011.014A11.252,11.252,0,0,0,17.441,29.1a11.654,11.654,0,0,0,10.871-7.56,8.687,8.687,0,0,0,.622-2.492c.038-.282.065-.57.082-.856a24.7,24.7,0,0,0-.009-3.406L29,14.727h0l.013,0V12.638c0-7.1-6.2-9.647-11.509-9.666h-.066c-3.785,0-7,1.127-9.053,3.173A8.618,8.618,0,0,0,5.914,12.5v1.04c-.007.474-.007,1,0,1.557v.414l.006,0Z" transform="translate(0)" fill="#1bafd7"/>
      </g>
      <g id="grandparents-4" data-name="grandparents" transform="translate(1.931)">
        <path id="Subtraction_2-4" data-name="Subtraction 2" d="M33.4,53.506H1.486A1.487,1.487,0,0,1,0,52.02V42.69a9.643,9.643,0,0,1,9.632-9.632h2.812v-1.87A14.561,14.561,0,0,1,2.874,17.5v-.043c0-.054.012-.922.066-4.745,0-.135,0-.214,0-.22A11.64,11.64,0,0,1,6.289,4.04C8.9,1.435,12.869,0,17.457,0h.058c8.655.03,14.47,5.109,14.47,12.637v.106c.009,1.67.023,4.508.023,4.761a14.487,14.487,0,0,1-2.693,8.43,14.642,14.642,0,0,1-6.877,5.254v1.87h2.812a9.643,9.643,0,0,1,9.632,9.632v9.33A1.485,1.485,0,0,1,33.4,53.506ZM24.047,36.029V50.535H31.91V42.69a6.668,6.668,0,0,0-6.66-6.66Zm-10.241,0V50.535h7.27V36.029Zm-4.174,0a6.668,6.668,0,0,0-6.66,6.66v7.845h7.863V36.029Zm5.783-4.1v1.128h4.051V31.931a14.694,14.694,0,0,1-4.051,0ZM5.921,15.5h0c.034,1.788.127,3.348.128,3.364l.011.014A11.252,11.252,0,0,0,17.441,29.1a11.654,11.654,0,0,0,10.871-7.56,8.687,8.687,0,0,0,.622-2.492c.038-.282.065-.57.082-.856a24.7,24.7,0,0,0-.009-3.406L29,14.727h0l.013,0V12.638c0-7.1-6.2-9.647-11.509-9.666h-.066c-3.785,0-7,1.127-9.053,3.173A8.618,8.618,0,0,0,5.914,12.5v1.04c-.007.474-.007,1,0,1.557v.414l.006,0Z" transform="translate(0)" fill="#1bafd7"/>
      </g>
    </g>
    <g id="Group_1158" data-name="Group 1158" transform="translate(1539.914 3672.631)">
      <g id="grandparents-5" data-name="grandparents" transform="translate(0)">
        <path id="Subtraction_2-5" data-name="Subtraction 2" d="M33.4,53.506H1.486A1.487,1.487,0,0,1,0,52.02V42.69a9.643,9.643,0,0,1,9.632-9.632h2.812v-1.87A14.561,14.561,0,0,1,2.874,17.5v-.043c0-.054.012-.922.066-4.745,0-.135,0-.214,0-.22A11.64,11.64,0,0,1,6.289,4.04C8.9,1.435,12.869,0,17.457,0h.058c8.655.03,14.47,5.109,14.47,12.637v.106c.009,1.67.023,4.508.023,4.761a14.487,14.487,0,0,1-2.693,8.43,14.642,14.642,0,0,1-6.877,5.254v1.87h2.812a9.643,9.643,0,0,1,9.632,9.632v9.33A1.485,1.485,0,0,1,33.4,53.506ZM24.047,36.029V50.535H31.91V42.69a6.668,6.668,0,0,0-6.66-6.66Zm-10.241,0V50.535h7.27V36.029Zm-4.174,0a6.668,6.668,0,0,0-6.66,6.66v7.845h7.863V36.029Zm5.783-4.1v1.128h4.051V31.931a14.694,14.694,0,0,1-4.051,0ZM5.921,15.5h0c.034,1.788.127,3.348.128,3.364l.011.014A11.252,11.252,0,0,0,17.441,29.1a11.654,11.654,0,0,0,10.871-7.56,8.687,8.687,0,0,0,.622-2.492c.038-.282.065-.57.082-.856a24.7,24.7,0,0,0-.009-3.406L29,14.727h0l.013,0V12.638c0-7.1-6.2-9.647-11.509-9.666h-.066c-3.785,0-7,1.127-9.053,3.173A8.618,8.618,0,0,0,5.914,12.5v1.04c-.007.474-.007,1,0,1.557v.414l.006,0Z" transform="translate(0)" fill="#1bafd7"/>
      </g>
      <g id="grandparents-6" data-name="grandparents" transform="translate(1.931)">
        <path id="Subtraction_2-6" data-name="Subtraction 2" d="M33.4,53.506H1.486A1.487,1.487,0,0,1,0,52.02V42.69a9.643,9.643,0,0,1,9.632-9.632h2.812v-1.87A14.561,14.561,0,0,1,2.874,17.5v-.043c0-.054.012-.922.066-4.745,0-.135,0-.214,0-.22A11.64,11.64,0,0,1,6.289,4.04C8.9,1.435,12.869,0,17.457,0h.058c8.655.03,14.47,5.109,14.47,12.637v.106c.009,1.67.023,4.508.023,4.761a14.487,14.487,0,0,1-2.693,8.43,14.642,14.642,0,0,1-6.877,5.254v1.87h2.812a9.643,9.643,0,0,1,9.632,9.632v9.33A1.485,1.485,0,0,1,33.4,53.506ZM24.047,36.029V50.535H31.91V42.69a6.668,6.668,0,0,0-6.66-6.66Zm-10.241,0V50.535h7.27V36.029Zm-4.174,0a6.668,6.668,0,0,0-6.66,6.66v7.845h7.863V36.029Zm5.783-4.1v1.128h4.051V31.931a14.694,14.694,0,0,1-4.051,0ZM5.921,15.5h0c.034,1.788.127,3.348.128,3.364l.011.014A11.252,11.252,0,0,0,17.441,29.1a11.654,11.654,0,0,0,10.871-7.56,8.687,8.687,0,0,0,.622-2.492c.038-.282.065-.57.082-.856a24.7,24.7,0,0,0-.009-3.406L29,14.727h0l.013,0V12.638c0-7.1-6.2-9.647-11.509-9.666h-.066c-3.785,0-7,1.127-9.053,3.173A8.618,8.618,0,0,0,5.914,12.5v1.04c-.007.474-.007,1,0,1.557v.414l.006,0Z" transform="translate(0)" fill="#1bafd7"/>
      </g>
    </g>
    <g id="Group_1154" data-name="Group 1154" transform="translate(1474.609 3583.195) rotate(20)">
      <path id="Path_1299" data-name="Path 1299" d="M45.978,19.432,41.312,18.5a18.464,18.464,0,0,0-1.878-4.54L42.075,10a.777.777,0,0,0-.1-.98l-4.4-4.392a.777.777,0,0,0-.98-.1L32.638,7.171A18.463,18.463,0,0,0,28.1,5.293L27.168.621A.777.777,0,0,0,26.406,0H20.193a.777.777,0,0,0-.761.621L18.5,5.287a18.464,18.464,0,0,0-4.54,1.878L10,4.525a.777.777,0,0,0-.98.1l-4.392,4.4a.777.777,0,0,0-.1.98l2.641,3.961A18.463,18.463,0,0,0,5.293,18.5l-4.672.93A.777.777,0,0,0,0,20.193v6.213a.777.777,0,0,0,.621.761l4.666.932a18.464,18.464,0,0,0,1.878,4.54L4.525,36.6a.777.777,0,0,0,.1.98l4.394,4.394a.777.777,0,0,0,.98.1l3.961-2.641a18.464,18.464,0,0,0,4.54,1.878l.932,4.666a.777.777,0,0,0,.765.625h6.213a.777.777,0,0,0,.761-.621l.932-4.666a18.463,18.463,0,0,0,4.54-1.878L36.6,42.075a.777.777,0,0,0,.98-.1l4.394-4.394a.777.777,0,0,0,.1-.98L39.43,32.643a18.463,18.463,0,0,0,1.878-4.54l4.666-.932a.777.777,0,0,0,.625-.765V20.193a.777.777,0,0,0-.621-.761Zm-.932,6.338-4.522.9a.777.777,0,0,0-.6.582,16.945,16.945,0,0,1-2.07,5,.777.777,0,0,0,.016.839l2.558,3.837-3.495,3.495-3.837-2.558a.777.777,0,0,0-.839-.016,16.945,16.945,0,0,1-4.992,2.067.777.777,0,0,0-.583.6l-.909,4.522H20.83l-.9-4.522a.777.777,0,0,0-.582-.6,16.945,16.945,0,0,1-5-2.07.777.777,0,0,0-.839.016L9.669,40.424,6.174,36.929l2.558-3.837a.777.777,0,0,0,.016-.839,16.945,16.945,0,0,1-2.067-4.992.777.777,0,0,0-.6-.583L1.553,25.77V20.83l4.522-.9a.777.777,0,0,0,.6-.582,16.945,16.945,0,0,1,2.07-5,.777.777,0,0,0-.016-.839L6.176,9.669,9.671,6.174l3.837,2.558a.777.777,0,0,0,.839.016,16.945,16.945,0,0,1,5-2.067.777.777,0,0,0,.582-.6l.9-4.522h4.94l.9,4.522a.777.777,0,0,0,.582.6,16.945,16.945,0,0,1,5,2.07.777.777,0,0,0,.839-.016l3.837-2.558,3.495,3.495-2.558,3.837a.777.777,0,0,0-.016.839,16.945,16.945,0,0,1,2.067,5,.777.777,0,0,0,.6.582l4.522.9Z" transform="translate(0 0)" fill="#1bafd7" stroke="#1bafd7" stroke-width="2"/>
      <g id="Ellipse_176" data-name="Ellipse 176" transform="translate(11.702 11.702)" fill="none" stroke="#1bafd7" stroke-width="4">
        <ellipse cx="11.586" cy="11.585" rx="11.586" ry="11.585" stroke="none"/>
        <ellipse cx="11.586" cy="11.585" rx="9.586" ry="9.585" fill="none"/>
      </g>
    </g>
    <g id="Group_1156" data-name="Group 1156" transform="translate(1516.548 3594.72)">
      <path id="Path_1299-2" data-name="Path 1299" d="M38.131,17.27l-3.667-.732a14.509,14.509,0,0,0-1.476-3.567l2.075-3.113a.61.61,0,0,0-.076-.77L31.53,5.636a.61.61,0,0,0-.77-.076L27.647,7.635A14.509,14.509,0,0,0,24.08,6.159l-.731-3.671a.61.61,0,0,0-.6-.488H17.868a.61.61,0,0,0-.6.488l-.732,3.667A14.509,14.509,0,0,0,12.97,7.631L9.858,5.556a.61.61,0,0,0-.77.076L5.636,9.089a.61.61,0,0,0-.076.77l2.075,3.113a14.509,14.509,0,0,0-1.476,3.567l-3.671.731a.61.61,0,0,0-.488.6v4.883a.61.61,0,0,0,.488.6l3.667.732a14.509,14.509,0,0,0,1.476,3.567L5.556,30.761a.61.61,0,0,0,.076.77l3.453,3.453a.61.61,0,0,0,.77.076l3.113-2.075a14.509,14.509,0,0,0,3.567,1.476l.732,3.667a.61.61,0,0,0,.6.491h4.883a.61.61,0,0,0,.6-.488l.732-3.667a14.509,14.509,0,0,0,3.567-1.476l3.113,2.075a.61.61,0,0,0,.77-.076l3.453-3.453a.61.61,0,0,0,.076-.77l-2.075-3.113a14.509,14.509,0,0,0,1.476-3.567l3.667-.732a.61.61,0,0,0,.491-.6V17.868a.61.61,0,0,0-.488-.6ZM37.4,22.25l-3.554.711a.61.61,0,0,0-.474.458,13.316,13.316,0,0,1-1.627,3.928.61.61,0,0,0,.012.659l2.01,3.015-2.746,2.746L28,31.758a.61.61,0,0,0-.659-.012,13.316,13.316,0,0,1-3.923,1.625.61.61,0,0,0-.458.474L22.25,37.4H18.369l-.711-3.554a.61.61,0,0,0-.458-.474,13.316,13.316,0,0,1-3.928-1.627.61.61,0,0,0-.659.012L9.6,33.766,6.851,31.019,8.861,28a.61.61,0,0,0,.012-.659,13.316,13.316,0,0,1-1.625-3.923.61.61,0,0,0-.474-.458L3.221,22.25V18.369l3.554-.711a.61.61,0,0,0,.474-.458,13.316,13.316,0,0,1,1.627-3.928.61.61,0,0,0-.012-.659L6.853,9.6,9.6,6.851l3.015,2.01a.61.61,0,0,0,.659.012A13.316,13.316,0,0,1,17.2,7.249a.61.61,0,0,0,.458-.474l.711-3.554H22.25l.711,3.554a.61.61,0,0,0,.458.474,13.316,13.316,0,0,1,3.928,1.626.61.61,0,0,0,.659-.012l3.015-2.01L33.768,9.6l-2.01,3.015a.61.61,0,0,0-.012.659A13.316,13.316,0,0,1,33.37,17.2a.61.61,0,0,0,.474.458l3.554.711Z" transform="translate(-2 -2)" fill="#1bafd7" stroke="#1bafd7" stroke-width="2"/>
      <circle id="Ellipse_176-2" data-name="Ellipse 176" cx="9" cy="9" r="9" transform="translate(9.452 9.28)" fill="none" stroke="#1bafd7" stroke-width="3"/>
    </g>
    <g id="Group_1155" data-name="Group 1155" transform="translate(1464.597 3645.432)">
      <path id="Path_1300" data-name="Path 1300" d="M5577.218,3660.117c.146-.58,0-18.573,0-18.573h92.432v18.573" transform="translate(-5577.218 -3641.544)" fill="none" stroke="#1bafd7" stroke-linecap="round" stroke-width="5"/>
      <path id="Path_1301" data-name="Path 1301" d="M5624.573,3660.117v-18.573" transform="translate(-5578.854 -3641.544)" fill="none" stroke="#1bafd7" stroke-linecap="round" stroke-width="5"/>
    </g>
  </g>
</svg>
