<svg xmlns="http://www.w3.org/2000/svg" width="54.586" height="54.585" viewBox="0 0 54.586 54.585">
  <defs>
    <style>
      .cls-1, .cls-2 {
        fill: #fff;
      }

      .cls-2 {
        fill-rule: evenodd;
      }
    </style>
  </defs>
  <g id="Group_27" data-name="Group 27" transform="translate(-131.32 -202.947)">
    <g id="Group_25" data-name="Group 25">
      <path id="Path_8" data-name="Path 8" class="cls-1" d="M158.613,257.532a27.293,27.293,0,1,1,27.293-27.292A27.324,27.324,0,0,1,158.613,257.532Zm0-51.653a24.361,24.361,0,1,0,24.361,24.361A24.388,24.388,0,0,0,158.613,205.879Z"/>
    </g>
    <g id="Group_26" data-name="Group 26">
      <path id="Path_9" data-name="Path 9" class="cls-2" d="M154.333,230.369v15.818a.412.412,0,0,0,.412.412h5.874a.412.412,0,0,0,.412-.412V230.111h4.259a.412.412,0,0,0,.41-.377l.41-4.844a.413.413,0,0,0-.411-.447h-4.668v-3.436a1.459,1.459,0,0,1,1.458-1.459h3.283a.412.412,0,0,0,.412-.412v-4.843a.412.412,0,0,0-.412-.412h-5.546a5.893,5.893,0,0,0-5.893,5.893v4.669H151.4a.412.412,0,0,0-.412.412V229.7a.411.411,0,0,0,.412.412h2.937Z"/>
    </g>
  </g>
</svg>
