<svg xmlns="http://www.w3.org/2000/svg" width="54.493" height="54.493" viewBox="0 0 54.493 54.493">
  <defs>
    <style>
      .cls-1 {
        fill: #fff;
      }
    </style>
  </defs>
  <g id="Group_21" data-name="Group 21" transform="translate(-131.366 -268.094)">
    <g id="Group_19" data-name="Group 19">
      <g id="Group_16" data-name="Group 16">
        <path id="Path_6" data-name="Path 6" class="cls-1" d="M158.613,322.587a27.247,27.247,0,1,1,27.246-27.247A27.278,27.278,0,0,1,158.613,322.587Zm0-51.561a24.314,24.314,0,1,0,24.314,24.314A24.342,24.342,0,0,0,158.613,271.026Z"/>
      </g>
      <g id="Group_18" data-name="Group 18">
        <g id="Group_17" data-name="Group 17">
          <path id="Path_7" data-name="Path 7" class="cls-1" d="M174.016,297.415v10.173a.454.454,0,0,1-.455.455h-5.252a.455.455,0,0,1-.455-.455v-9.461c0-2.49-.889-4.19-3.121-4.19a3.37,3.37,0,0,0-3.16,2.253,4.2,4.2,0,0,0-.2,1.5v9.9a.456.456,0,0,1-.456.455h-5.25a.453.453,0,0,1-.455-.455c.012-2.52.065-14.745.011-17.618a.453.453,0,0,1,.455-.461h5.24a.456.456,0,0,1,.455.456v2.171c-.013.021-.03.041-.041.061h.041v-.061a6.119,6.119,0,0,1,5.554-3.062c4.054,0,7.093,2.649,7.093,8.341Zm-27.923,10.628h5.251a.455.455,0,0,0,.455-.455V289.965a.456.456,0,0,0-.455-.456h-5.251a.456.456,0,0,0-.455.456v17.623A.455.455,0,0,0,146.093,308.043Z"/>
        </g>
      </g>
    </g>
    <g id="Group_20" data-name="Group 20">
      <circle id="Ellipse_3" data-name="Ellipse 3" class="cls-1" cx="3.299" cy="3.299" r="3.299" transform="translate(145.236 280.555)"/>
    </g>
  </g>
</svg>
