<svg xmlns="http://www.w3.org/2000/svg" width="12.516" height="15.199" viewBox="0 0 12.516 15.199">
  <defs>
    <style>
      .cls-1 {
        fill: #fff;
        stroke: #fff;
        stroke-width: 0.2px;
      }
    </style>
  </defs>
  <g id="building" transform="translate(-0.697 2.835)">
    <g id="Group_549" data-name="Group 549" transform="translate(0.797 -2.736)">
      <g id="Group_548" data-name="Group 548" transform="translate(0 0)">
        <path id="Union_1" data-name="Union 1" class="cls-1" d="M.205,15a.205.205,0,1,1,0-.41H.956V.277c0-.167.079-.277.2-.277H11.14c.12,0,.2.111.2.277V14.589h.77a.205.205,0,1,1,0,.41Zm10.735-.41V.553H1.355V14.589h3V11.9c0-.166.08-.276.2-.276H7.745c.12,0,.2.111.2.276v2.687Zm-3.395,0V12.18h-1.2v2.409Zm-1.6,0V12.18H4.75v2.409ZM4.774,10.628a.247.247,0,0,1,0-.493H7.729a.247.247,0,0,1,0,.493ZM5.266,9.4a.233.233,0,0,1-.247-.246V7.673a.233.233,0,0,1,.247-.247h1.97a.232.232,0,0,1,.247.247V9.15a.232.232,0,0,1-.247.246ZM5.513,8.9H6.99V7.918H5.513ZM5.266,6.687a.233.233,0,0,1-.247-.247V4.963a.233.233,0,0,1,.247-.246h1.97a.232.232,0,0,1,.247.246V6.44a.233.233,0,0,1-.247.247Zm.247-.492H6.99V5.209H5.513ZM5.266,3.977a.233.233,0,0,1-.247-.246V2.254a.233.233,0,0,1,.247-.247h1.97a.233.233,0,0,1,.247.247V3.731a.232.232,0,0,1-.247.246Zm.247-.492H6.99V2.5H5.513Z"/>
      </g>
    </g>
  </g>
</svg>
