<svg xmlns="http://www.w3.org/2000/svg" width="13.508" height="13.498" viewBox="0 0 13.508 13.498">
  <defs>
    <style>
      .cls-1 {
        fill: #fff;
        stroke: #fff;
        stroke-width: 0.2px;
      }
    </style>
  </defs>
  <g id="call" transform="translate(0.109 0.139)">
    <g id="Group_551" data-name="Group 551" transform="translate(0 0)">
      <g id="Group_550" data-name="Group 550">
        <path id="Path_692" data-name="Path 692" class="cls-1" d="M13.911,11.246l-2.684-1.79a.783.783,0,0,0-1.049.17L9.4,10.632a.334.334,0,0,1-.428.09L8.82,10.64A8.987,8.987,0,0,1,6.478,8.8a9.023,9.023,0,0,1-1.84-2.342L4.557,6.31a.335.335,0,0,1,.088-.43l1-.781A.784.784,0,0,0,5.82,4.049L4.03,1.366a.779.779,0,0,0-1.05-.236L1.858,1.8a1.583,1.583,0,0,0-.722.937c-.4,1.472-.1,4.014,3.643,7.757,2.978,2.978,5.195,3.778,6.718,3.778a3.914,3.914,0,0,0,1.038-.136,1.581,1.581,0,0,0,.937-.722l.675-1.122A.779.779,0,0,0,13.911,11.246Zm-.145.824-.673,1.122a1.142,1.142,0,0,1-.674.522c-1.359.373-3.734.064-7.328-3.53s-3.9-5.968-3.53-7.328a1.144,1.144,0,0,1,.523-.675l1.122-.673a.338.338,0,0,1,.456.1l.972,1.46L5.451,4.3a.34.34,0,0,1-.074.455l-1,.781a.773.773,0,0,0-.2.993l.08.145A9.373,9.373,0,0,0,6.163,9.113a9.383,9.383,0,0,0,2.443,1.915l.145.08a.773.773,0,0,0,.993-.2l.781-1a.34.34,0,0,1,.455-.074l2.683,1.79A.338.338,0,0,1,13.767,12.07Z" transform="translate(-1 -1.018)"/>
        <path id="Path_693" data-name="Path 693" class="cls-1" d="M282.849,69.766a3.76,3.76,0,0,1,3.756,3.756.221.221,0,1,0,.442,0,4.2,4.2,0,0,0-4.2-4.2.221.221,0,1,0,0,.442Z" transform="translate(-275.336 -67.555)"/>
        <path id="Path_694" data-name="Path 694" class="cls-1" d="M282.849,120.966a2.433,2.433,0,0,1,2.43,2.43.221.221,0,0,0,.442,0,2.876,2.876,0,0,0-2.872-2.872.221.221,0,1,0,0,.442Z" transform="translate(-275.336 -117.43)"/>
        <path id="Path_695" data-name="Path 695" class="cls-1" d="M282.849,172.166a1.106,1.106,0,0,1,1.1,1.1.221.221,0,0,0,.442,0,1.548,1.548,0,0,0-1.547-1.547.221.221,0,1,0,0,.442Z" transform="translate(-275.336 -167.304)"/>
      </g>
    </g>
  </g>
</svg>
