<svg xmlns="http://www.w3.org/2000/svg" width="985.318" height="985.32" viewBox="0 0 985.318 985.32">
  <g id="Group_1554" data-name="Group 1554" transform="translate(1279.284 -9812.716)">
    <path id="instagram" d="M367.987,0H112.649A112.777,112.777,0,0,0,0,112.649V367.987A112.777,112.777,0,0,0,112.649,480.637H367.987A112.777,112.777,0,0,0,480.636,367.987V112.649A112.777,112.777,0,0,0,367.987,0Zm75.1,367.987a75.183,75.183,0,0,1-75.1,75.1H112.649a75.183,75.183,0,0,1-75.1-75.1V112.649a75.183,75.183,0,0,1,75.1-75.1H367.987a75.183,75.183,0,0,1,75.1,75.1ZM240.318,134.24A106.078,106.078,0,1,0,346.4,240.318,106.2,106.2,0,0,0,240.318,134.24Zm0,174.606a68.528,68.528,0,1,1,68.528-68.528A68.6,68.6,0,0,1,240.318,308.847ZM388.012,116.093a23.469,23.469,0,1,1-23.469-23.469A23.469,23.469,0,0,1,388.012,116.093Zm0,0" transform="translate(-1026.147 10065.849)" fill="#fff"/>
    <g id="Group_21" data-name="Group 21" transform="translate(-1279.284 9812.716)">
      <g id="Group_19" data-name="Group 19" transform="translate(0 0)">
        <g id="Group_16" data-name="Group 16">
          <path id="Path_6" data-name="Path 6" d="M624.042,1253.413c-272.108,0-492.68-220.575-492.677-492.666S351.94,268.09,624.03,268.093s492.656,220.575,492.653,492.667C1116.371,1032.71,895.993,1253.094,624.042,1253.413Zm0-932.288c-242.8,0-439.627,196.828-439.627,439.628s196.828,439.628,439.627,439.628,439.627-196.828,439.627-439.628C1063.39,518.069,866.726,321.4,624.042,321.125Z" transform="translate(-131.365 -268.093)" fill="#fff"/>
        </g>
      </g>
    </g>
  </g>
</svg>
