<svg xmlns="http://www.w3.org/2000/svg" width="54.59" height="54.585" viewBox="0 0 54.59 54.585">
  <defs>
    <style>
      .cls-1, .cls-2 {
        fill: #fff;
      }

      .cls-2 {
        fill-rule: evenodd;
      }
    </style>
  </defs>
  <g id="Group_1149" data-name="Group 1149" transform="translate(-291.272 -202.947)">
    <g id="Group_1142" data-name="Group 1142" transform="translate(291.272 202.947)">
      <path id="Path_778" data-name="Path 778" class="cls-1" d="M318.566,257.532a27.293,27.293,0,1,1,27.3-27.292A27.324,27.324,0,0,1,318.566,257.532Zm0-51.653A24.361,24.361,0,1,0,342.93,230.24,24.389,24.389,0,0,0,318.566,205.879Z" transform="translate(-291.272 -202.947)"/>
    </g>
    <g id="Group_1148" data-name="Group 1148" transform="translate(303.561 217.139)">
      <g id="Group_1143" data-name="Group 1143">
        <path id="Path_779" data-name="Path 779" class="cls-1" d="M334.25,220.279a13.038,13.038,0,0,1-3.213.918c.518-.087,1.281-1.024,1.586-1.4a5.921,5.921,0,0,0,1.07-1.948c.028-.056.049-.126-.007-.168a.181.181,0,0,0-.17.014,16.394,16.394,0,0,1-3.817,1.461.254.254,0,0,1-.263-.07,3.086,3.086,0,0,0-.334-.341,6.755,6.755,0,0,0-1.849-1.133,6.438,6.438,0,0,0-2.836-.457,6.778,6.778,0,0,0-2.69.76,6.931,6.931,0,0,0-2.17,1.773,6.673,6.673,0,0,0-1.3,2.6,7.026,7.026,0,0,0-.068,2.741c.02.153.007.174-.132.153-5.243-.78-9.588-2.656-13.116-6.676-.153-.174-.236-.174-.362.014-1.543,2.314-.794,6.031,1.134,7.858.257.243.521.487.806.709a6.663,6.663,0,0,1-2.531-.709c-.153-.1-.23-.041-.243.132a3.965,3.965,0,0,0,.041.752,6.726,6.726,0,0,0,4.145,5.361,3.9,3.9,0,0,0,.841.257,7.491,7.491,0,0,1-2.482.077c-.181-.035-.25.056-.181.23a6.982,6.982,0,0,0,5.216,4.367c.236.041.473.041.71.1-.015.021-.029.021-.042.042-.586.893-2.617,1.557-3.562,1.888a12.761,12.761,0,0,1-5.41.692c-.291-.043-.352-.04-.431,0s-.01.119.084.194c.369.244.744.46,1.126.668a17.9,17.9,0,0,0,3.616,1.447c6.5,1.794,13.819.476,18.7-4.372,3.831-3.808,5.174-9.058,5.174-14.314,0-.206.243-.32.388-.428a12.6,12.6,0,0,0,2.533-2.647.771.771,0,0,0,.157-.507v-.028C334.37,220.2,334.38,220.221,334.25,220.279Z" transform="translate(-302.559 -217.139)"/>
      </g>
      <g id="Group_1144" data-name="Group 1144" transform="translate(9.447 26.089)">
        <path id="Path_780" data-name="Path 780" class="cls-2" d="M312.006,243.228Z" transform="translate(-312.006 -243.228)"/>
      </g>
      <g id="Group_1145" data-name="Group 1145" transform="translate(9.204 26.089)">
        <path id="Path_781" data-name="Path 781" class="cls-2" d="M312.006,243.228c-.042,0-.525,0,0,0Z" transform="translate(-311.763 -243.228)"/>
      </g>
      <g id="Group_1146" data-name="Group 1146" transform="translate(10.518 26.094)">
        <path id="Path_782" data-name="Path 782" class="cls-2" d="M313.077,243.256c0-.053.563,0,0,0C313.077,243.228,313.146,243.256,313.077,243.256Z" transform="translate(-313.077 -243.232)"/>
      </g>
      <g id="Group_1147" data-name="Group 1147" transform="translate(21.638 0.038)">
        <path id="Path_783" data-name="Path 783" class="cls-2" d="M324.328,217.177a.112.112,0,0,1-.131,0Z" transform="translate(-324.197 -217.177)"/>
      </g>
    </g>
  </g>
</svg>
